<svg xmlns="http://www.w3.org/2000/svg" xmlns:xlink="http://www.w3.org/1999/xlink" viewBox="0 0 60 60" xmlns:v="https://vecta.io/nano"><defs><path id="A" d="M-2319.5-978h1920V102h-1920z"/></defs><clipPath id="B"><use xlink:href="#A"/></clipPath><g clip-path="url(#B)"><image width="3840" height="1080" xlink:href="52C0C140.jpg" transform="translate(-2319.5 -978)" overflow="visible"/></g><linearGradient id="C" gradientUnits="userSpaceOnUse" x1="1" y1="30" x2="59" y2="30"><stop offset="0" stop-color="#ce47db"/><stop offset=".994" stop-color="#7120b6"/></linearGradient><circle cx="30" cy="30" r="29" fill="url(#C)"/><path d="M27.4 32v7c0 1.1-.7 1.4-1.5.7L14 29.3c-.4-.3-.6-.8-.6-1.3s.2-1 .6-1.3l11.9-10.4c.8-.7 1.5-.4 1.5.7v7h2c7.7 0 14.2 6.4 15.8 13.2l.3 1.5c.1.5-.2.7-.6.3l-.2-.2c-4.1-4.1-9.5-6.6-15.3-6.8h-2 0 0 0z" fill-rule="evenodd" fill="#f3f8ff"/></svg>