<svg xmlns="http://www.w3.org/2000/svg" viewBox="0 0 24 24" xmlns:v="https://vecta.io/nano"><path d="M14 17l1.4-.3c2-.5 3.2-1.9 3.4-3.9.1-.7.1-1.3 0-2a3.1 3.1 0 0 0-.9-1.8c-.1-.1-.1-.2-.1-.3.2-.9.1-1.7-.2-2.5 0-.1-.1-.2-.3-.2l-1.3.3c-.4.2-.8.5-1.2.7-.1 0-.2.1-.3 0-1.6-.4-3.3-.4-4.9 0-.2.1-.3 0-.4 0-.7-.5-1.4-.9-2.3-1h-.2c-.2 0-.3 0-.3.2-.3.8-.4 1.6-.1 2.5 0 .1 0 .2-.1.3-.8 1-1 2-1 3.3.1.7.2 1.4.4 2 .6 1.5 1.7 2.2 3.2 2.6.4.1.8.1 1.2.2-.3.4-.5.8-.6 1.3 0 .1-.1.1-.2.1-1.2.5-2.2.2-2.9-.9-.4-.6-.8-1-1.5-1.1h-.4c-.2.1-.3.2-.1.4.1 0 .2.1.3.1.5.3.9.8 1.1 1.4.4 1.2 1.6 1.7 2.9 1.6.3 0 .5-.1.8-.1v.7 1.1c0 .5-.3.7-.8.6-1.4-.5-2.7-1.3-3.8-2.3-2.3-2.2-3.4-5-3.4-8.2.2-5 3.9-9.3 8.9-10.1 5.7-.9 11.1 2.9 12.1 8.5 1 5.3-1.9 10.4-6.9 12.1-.6.2-.9 0-.9-.6v-2.8c0-.7-.1-1.3-.6-1.9z" fill="#f3f8ff"/></svg>