<svg xmlns="http://www.w3.org/2000/svg" viewBox="0 0 280 60" fill="#00dffc" xmlns:v="https://vecta.io/nano"><path d="M29.8 4.6C15.6 4.6 4.1 16.1 4.1 30.3S15.6 56 29.8 56s25.7-11.5 25.7-25.7S43.9 4.6 29.8 4.6zm1.3 13.8c0-.4 0-.7.1-1a1.08 1.08 0 0 1 .3-.7c.2-.3.4-.5.8-.6s.9-.2 1.6-.2 1.2.1 1.6.2.7.3.9.5a1.08 1.08 0 0 1 .3.7c0 .2.1.5.1.9v11.5c0 1 .3 1.6.9 2s1.2.6 1.9.6c1 0 1.7.1 2.2.4s.7.9.7 2c0 .6-.1 1-.2 1.4s-.3.6-.7.7c-.3.1-.6.2-.8.3-.2 0-.6.1-1.1.1-2.1 0-4.1-.7-5.9-2s-2.7-3.1-2.7-5.3V18.4zm-8.3-7.7c0-.2.1-.4.3-.7s.5-.4.9-.6a6.96 6.96 0 0 1 1.6-.2c.7 0 1.2.1 1.6.2s.7.3.9.5a1.08 1.08 0 0 1 .3.7c0 .2.1.5.1.9v.2c0 .4 0 .7-.1.9 0 .2-.1.4-.3.7s-.5.4-.9.5a6.96 6.96 0 0 1-1.6.2c-.7 0-1.2-.1-1.6-.2s-.7-.3-.9-.6-.3-.5-.3-.7-.1-.5-.1-1c0-.3.1-.6.1-.8zm-5 22.1c.5-.3 1.2-.4 2.2-.4.6 0 1.3-.2 1.9-.6s.9-1 .9-2V18.3c0-.4 0-.7.1-.9 0-.2.2-.4.3-.7.2-.2.5-.4.9-.5a6.96 6.96 0 0 1 1.6-.2c.7 0 1.2.1 1.6.2s.7.3.8.6c.2.3.3.5.3.7s.1.5.1 1V30c0 2.2-.9 4-2.7 5.3s-3.8 2-5.9 2c-.5 0-.9 0-1.1-.1-.2 0-.5-.1-.8-.3-.3-.1-.5-.4-.7-.7-.1-.4-.2-.8-.2-1.4-.1-1 .2-1.7.7-2zm24.5 12.9c-.9 1-2.1 1.5-3.6 1.5h-.5H37h-1.4c-1.2 0-2 0-2.5.1-.9 0-1.3.7-1.3 2v.2.5c0 .1-.1.3-.2.5s-.3.3-.6.4c-.4.1-.8.1-1.2.1-.5 0-.8-.1-1.2-.2-.3-.1-.5-.2-.6-.4s-.2-.4-.2-.5v-.5-.1c0-1.4-.5-2.1-1.4-2.1h-5.7c-1.4 0-2.6-.5-3.5-1.5s-1.4-2.3-1.4-3.9v-1c0-.2.1-.5.2-.7a.9.9 0 0 1 .6-.6c.3-.1.7-.2 1.1-.2s.8.1 1.1.2a.9.9 0 0 1 .6.6c.1.3.2.5.2.7s.1.5.1.9.4.7 1.1.7h4.8c.8 0 1.6.2 2.2.5.7.3 1.2.6 1.5 1l.4.5s.1-.1.1-.2c.1-.1.2-.3.4-.5s.5-.4.8-.6.7-.3 1.3-.5c.5-.1 1.1-.2 1.8-.2h4.1.8c.2 0 .4-.1.5-.2s.2-.2.2-.3v-.2-.9c0-.2.1-.5.2-.7s.3-.5.6-.6.7-.2 1.1-.2a3.73 3.73 0 0 1 1.2.2.9.9 0 0 1 .6.6c.1.3.2.5.2.7s.1.5.1.9c0 1.7-.4 2.9-1.4 4zm35.3-27.1c.5 0 1 .2 1.3.5.4.4.5.8.5 1.3v23.2c0 .9-.2 1.8-.5 2.7-.4.8-.9 1.6-1.5 2.2S76 49.6 75.2 50s-1.7.5-2.7.5h-1c-.5 0-1-.2-1.3-.5-.4-.4-.5-.8-.5-1.3s.2-1 .5-1.3c.4-.4.8-.5 1.3-.5h1c.9 0 1.6-.3 2.2-.9s.9-1.3.9-2.2V20.5c0-.5.2-1 .5-1.3.5-.4 1-.6 1.5-.6zm0-3.7c-.8 0-1.4-.3-2-.8-.6-.6-.8-1.2-.8-2s.3-1.4.8-2c.6-.6 1.2-.8 2-.8s1.4.3 2 .8c.6.6.8 1.2.8 2s-.3 1.4-.8 2c-.5.5-1.2.8-2 .8zm24 5.6c0-.5.2-1 .5-1.4.4-.4.8-.6 1.3-.6s1 .2 1.4.6.6.8.6 1.4v9.1c0 1.5-.3 2.9-.9 4.3-.6 1.3-1.4 2.5-2.4 3.5s-2.1 1.8-3.5 2.4-2.8.9-4.3.9a9.9 9.9 0 0 1-4.2-.9c-1.3-.6-2.5-1.4-3.5-2.4s-1.8-2.2-2.4-3.5-.9-2.8-.9-4.3v-9.1c0-.5.2-1 .5-1.4.4-.4.8-.6 1.3-.6s1 .2 1.3.6c.4.4.5.8.5 1.4v9.1a6.71 6.71 0 0 0 .6 2.8c.4.9.9 1.6 1.5 2.3.7.7 1.4 1.2 2.3 1.5s1.8.6 2.8.6a6.71 6.71 0 0 0 2.8-.6c.9-.4 1.6-.9 2.3-1.5.7-.7 1.2-1.4 1.5-2.3s.6-1.8.6-2.8v-9.1zm24.6 17.4c-1 .9-2.1 1.6-3.4 2-1.2.5-2.5.7-3.9.7-1.5 0-2.9-.3-4.3-.9-1.3-.6-2.5-1.4-3.5-2.4s-1.8-2.2-2.4-3.5-.9-2.8-.9-4.3.3-3 .9-4.3 1.4-2.5 2.4-3.5 2.2-1.8 3.5-2.4 2.8-.9 4.3-.9 3 .3 4.3.9 2.5 1.4 3.5 2.4 1.8 2.1 2.3 3.5c.6 1.3.9 2.8.9 4.3v9.1c0 .5-.2 1-.5 1.3-.4.4-.8.5-1.3.5s-1-.2-1.3-.5c-.4-.4-.5-.8-.5-1.3v-.7zM119 22.4a6.71 6.71 0 0 0-2.8.6c-.9.4-1.6.9-2.3 1.5-.7.7-1.2 1.4-1.5 2.3s-.6 1.8-.6 2.8a6.71 6.71 0 0 0 .6 2.8c.4.9.9 1.6 1.5 2.3.7.7 1.4 1.2 2.3 1.5a6.71 6.71 0 0 0 2.8.6 6.71 6.71 0 0 0 2.8-.6c.9-.4 1.6-.9 2.3-1.5.7-.7 1.2-1.4 1.5-2.3s.6-1.8.6-2.8a6.71 6.71 0 0 0-.6-2.8c-.4-.9-.9-1.6-1.5-2.3-.7-.7-1.4-1.2-2.3-1.5s-1.8-.6-2.8-.6zm17.9 16.3c0 .5-.2 1-.5 1.3-.4.4-.8.5-1.3.5s-1-.2-1.3-.5c-.4-.4-.5-.8-.5-1.3v-9.1c0-1.5.3-3 .9-4.3s1.4-2.5 2.4-3.5 2.2-1.8 3.5-2.4 2.8-.9 4.3-.9 3 .3 4.3.9 2.5 1.4 3.5 2.4 1.8 2.1 2.3 3.5c.6 1.3.9 2.8.9 4.3v9.1c0 .5-.2 1-.5 1.3-.4.4-.8.5-1.3.5s-1-.2-1.3-.5c-.4-.4-.5-.8-.5-1.3v-9.1a6.71 6.71 0 0 0-.6-2.8c-.4-.9-.9-1.6-1.5-2.3-.7-.7-1.4-1.2-2.3-1.5s-1.8-.6-2.8-.6a6.71 6.71 0 0 0-2.8.6c-.9.4-1.6.9-2.3 1.5-.7.7-1.2 1.4-1.5 2.3a6.71 6.71 0 0 0-.6 2.8v9.1zm25.7 0c0 .5-.2 1-.5 1.3-.4.4-.8.5-1.3.5s-1-.2-1.3-.5c-.4-.4-.5-.8-.5-1.3V11.1c0-.5.2-1 .5-1.3.4-.4.8-.5 1.3-.5s1 .2 1.3.5c.4.4.5.8.5 1.3v27.6zm14.2 1.9c-1.5 0-2.9-.3-4.3-.9-1.3-.6-2.5-1.4-3.5-2.4s-1.8-2.2-2.4-3.5-.9-2.8-.9-4.3.3-3 .9-4.3 1.4-2.5 2.4-3.5 2.2-1.8 3.5-2.4 2.8-.9 4.3-.9 3 .3 4.3.9 2.5 1.4 3.5 2.4 1.8 2.1 2.4 3.5c.6 1.3.9 2.8.9 4.3s-.3 2.9-.9 4.3c-.6 1.3-1.4 2.5-2.4 3.5s-2.1 1.8-3.5 2.4-2.8.9-4.3.9zm0-3.8a6.71 6.71 0 0 0 2.8-.6c.9-.4 1.6-.9 2.3-1.5.7-.7 1.2-1.4 1.5-2.3s.6-1.8.6-2.8a6.71 6.71 0 0 0-.6-2.8c-.4-.9-.9-1.6-1.5-2.3-.7-.7-1.4-1.2-2.3-1.5s-1.8-.6-2.8-.6a6.71 6.71 0 0 0-2.8.6c-.9.4-1.6.9-2.3 1.5-.7.7-1.2 1.4-1.5 2.3s-.6 1.8-.6 2.8a6.71 6.71 0 0 0 .6 2.8c.4.9.9 1.6 1.5 2.3.7.7 1.4 1.2 2.3 1.5.8.4 1.8.6 2.8.6zm13.6-7.2c0-1.5.3-3 .9-4.3s1.4-2.5 2.4-3.5 2.2-1.8 3.5-2.4 2.8-.9 4.3-.9 3 .3 4.3.9 2.5 1.4 3.5 2.4 1.8 2.1 2.3 3.5c.6 1.3.9 2.8.9 4.3s-.3 2.9-.9 4.3c-.6 1.3-1.3 2.5-2.3 3.5s-2.1 1.8-3.5 2.4c-1.3.6-2.8.9-4.3.9-1.3 0-2.6-.2-3.9-.7-1.2-.5-2.4-1.1-3.4-2v10.9c0 .5-.2 1-.5 1.3-.4.4-.8.5-1.3.5s-1-.2-1.3-.5c-.4-.4-.5-.8-.5-1.3V29.6zm11 7.2a6.71 6.71 0 0 0 2.8-.6c.9-.4 1.6-.9 2.3-1.5.7-.7 1.2-1.4 1.5-2.3s.6-1.8.6-2.8a6.71 6.71 0 0 0-.6-2.8c-.4-.9-.9-1.6-1.5-2.3-.7-.7-1.4-1.2-2.3-1.5s-1.8-.6-2.8-.6a6.71 6.71 0 0 0-2.8.6c-.9.4-1.6.9-2.3 1.5-.7.7-1.2 1.4-1.5 2.3a6.71 6.71 0 0 0-.6 2.8 6.71 6.71 0 0 0 .6 2.8c.4.9.9 1.6 1.5 2.3.7.7 1.4 1.2 2.3 1.5a6.71 6.71 0 0 0 2.8.6zm24.1-18.2c1.5 0 3 .3 4.3.9s2.5 1.3 3.5 2.3 1.8 2.1 2.3 3.5c.6 1.3.9 2.8.9 4.3 0 .5-.2 1-.5 1.3-.4.4-.8.5-1.3.5h-16c.2.8.6 1.5 1 2.1.4.7 1 1.2 1.6 1.7s1.3.8 2 1.1c.8.3 1.5.4 2.3.4 1.1 0 2.1-.2 3-.6s1.8-1 2.5-1.9c.4-.4.9-.7 1.4-.7s.9.2 1.2.5c.4.3.6.8.6 1.3s-.1 1-.5 1.4c-1.1 1.2-2.3 2.2-3.7 2.8-1.4.7-3 1-4.6 1-1.5 0-2.9-.3-4.3-.9-1.3-.6-2.5-1.4-3.5-2.4s-1.8-2.2-2.4-3.5-.9-2.8-.9-4.3.3-3 .9-4.3 1.4-2.5 2.4-3.5 2.2-1.8 3.5-2.3c1.4-.4 2.8-.7 4.3-.7zm7 9.1c-.2-.8-.5-1.5-1-2.2s-1-1.2-1.6-1.7-1.3-.8-2-1.1c-.8-.3-1.5-.4-2.3-.4a7.1 7.1 0 0 0-4.4 1.5c-1.3 1-2.1 2.3-2.6 3.9h13.9zm17.1-8.8c.5 0 1 .2 1.3.5.4.4.5.8.5 1.3s-.2 1-.5 1.3c-.4.4-.8.5-1.3.5h-3.4c-.9 0-1.6.3-2.2.9s-.9 1.3-.9 2.2v13c0 .5-.2 1-.5 1.3-.4.4-.8.5-1.3.5s-1-.2-1.3-.5c-.4-.4-.5-.8-.5-1.3v-13c0-1 .2-1.9.5-2.7.4-.8.9-1.6 1.5-2.2s1.4-1.1 2.2-1.5c.8-.3 1.7-.5 2.7-.5h3.2zm20.7 19c-1 .9-2.1 1.6-3.4 2-1.2.5-2.5.7-3.9.7-1.5 0-2.9-.3-4.3-.9-1.3-.6-2.5-1.4-3.5-2.4s-1.8-2.2-2.4-3.5-.9-2.8-.9-4.3.3-3 .9-4.3 1.4-2.5 2.4-3.5 2.2-1.8 3.5-2.4 2.8-.9 4.3-.9 3 .3 4.3.9 2.5 1.4 3.5 2.4 1.8 2.1 2.3 3.5c.6 1.3.9 2.8.9 4.3v9.1c0 .5-.2 1-.5 1.3-.4.4-.8.5-1.3.5s-1-.2-1.3-.5c-.4-.4-.5-.8-.5-1.3v-.7zm-7.2-15.5a6.71 6.71 0 0 0-2.8.6c-.9.4-1.6.9-2.3 1.5-.7.7-1.2 1.4-1.5 2.3s-.6 1.8-.6 2.8a6.71 6.71 0 0 0 .6 2.8c.4.9.9 1.6 1.5 2.3.7.7 1.4 1.2 2.3 1.5a6.71 6.71 0 0 0 2.8.6 6.71 6.71 0 0 0 2.8-.6c.9-.4 1.6-.9 2.3-1.5.7-.7 1.2-1.4 1.5-2.3s.6-1.8.6-2.8a6.71 6.71 0 0 0-.6-2.8c-.4-.9-.9-1.6-1.5-2.3-.7-.7-1.4-1.2-2.3-1.5s-1.8-.6-2.8-.6z"/></svg>