<svg xmlns="http://www.w3.org/2000/svg" xmlns:xlink="http://www.w3.org/1999/xlink" viewBox="0 0 310 60" xmlns:v="https://vecta.io/nano"><defs><path id="A" d="M-2175.5-1075.5h1920V4.5h-1920z"/></defs><clipPath id="B"><use xlink:href="#A"/></clipPath><g clip-path="url(#B)"><image width="3840" height="1080" xlink:href="A0E56865.jpg" transform="translate(-2175.5 -1075.5)" overflow="visible"/></g><path d="M32.4 1c-16 0-29 13-29 29s13 29 29 29 29-13 29-29-13-29-29-29zm1.4 15.6c0-.5 0-.8.1-1.1 0-.2.2-.5.3-.8.2-.3.5-.5.9-.7a8.16 8.16 0 0 1 1.8-.2c.8 0 1.4.1 1.9.2s.8.3 1 .6.3.5.4.8c.1.2.1.6.1 1v13c0 1.1.3 1.9 1 2.3s1.4.6 2.1.6c1.1 0 1.9.2 2.5.5.5.3.8 1.1.8 2.2a6.96 6.96 0 0 1-.2 1.6c-.1.4-.4.7-.7.8-.4.2-.7.3-.9.3-.3 0-.7.1-1.3.1-2.4 0-4.6-.7-6.7-2.2-2-1.5-3-3.5-3-5.9V16.6zm-9.3-8.7c0-.2.2-.5.3-.8.2-.3.5-.5 1-.6s1.1-.2 1.9-.2 1.4.1 1.8.2c.5.1.8.3 1 .6s.3.5.3.8c0 .2.1.6.1 1v.2c0 .5 0 .8-.1 1.1 0 .2-.2.5-.4.8s-.5.5-1 .6-1.1.2-1.8.2c-.8 0-1.4-.1-1.8-.2-.5-.1-.8-.3-1-.7-.2-.3-.3-.6-.3-.8s-.1-.6-.1-1.1c.1-.5.1-.9.1-1.1zm-5.7 25c.5-.3 1.4-.5 2.5-.5.7 0 1.4-.2 2.1-.6s1-1.2 1-2.3v-13c0-.4 0-.7.1-1 .1-.2.2-.5.4-.8s.5-.5 1-.6 1.1-.2 1.9-.2 1.4.1 1.8.2.8.4.9.7c.2.3.3.6.3.8s.1.6.1 1.1v13c0 2.5-1 4.5-3 5.9-2 1.5-4.2 2.2-6.7 2.2-.6 0-1 0-1.3-.1-.3 0-.6-.1-.9-.3-.4-.2-.6-.4-.7-.8s-.2-.9-.2-1.6c-.1-1.1.2-1.8.7-2.1zm27.7 14.5c-1.1 1.2-2.4 1.7-4.1 1.7h-.6-1.4-1.5c-1.4 0-2.3 0-2.8.1-1 0-1.5.8-1.5 2.3v.2.6c0 .1-.1.3-.2.5s-.4.4-.7.5a4.44 4.44 0 0 1-1.3.2 4.44 4.44 0 0 1-1.3-.2c-.3-.1-.6-.3-.7-.5s-.2-.4-.2-.5v-.6-.2c0-1.6-.5-2.3-1.5-2.3h-6.4c-1.6 0-3-.6-4-1.7-1-1.2-1.5-2.6-1.5-4.4V42c0-.2.1-.5.2-.8s.3-.5.7-.6c.3-.1.7-.2 1.3-.2a4.44 4.44 0 0 1 1.3.2c.3.1.6.3.7.6s.2.6.3.8c0 .2.1.6.1 1.1s.4.7 1.2.7H28c.9 0 1.8.2 2.5.6.8.4 1.3.7 1.6 1.1l.5.6s.1-.1.1-.2c.1-.1.2-.3.5-.5.3-.3.6-.5.9-.7.4-.2.8-.4 1.5-.5.6-.2 1.3-.2 2-.2h4.6.7c.2 0 .4-.1.6-.2.1-.1.2-.2.2-.3v-.2-1.1c0-.2.1-.5.2-.8s.4-.5.7-.6a4.44 4.44 0 0 1 1.3-.2c.6 0 1 .1 1.3.2s.5.4.7.6c.1.3.2.6.2.8s.1.6.1 1c-.1 1.6-.6 3-1.7 4.2z" fill="#00dffc"/><path d="M87.7 17.2c.6 0 1.1.2 1.5.6s.6.9.6 1.5v25.9c0 1.1-.2 2-.6 3-.4.9-1 1.7-1.6 2.4s-1.5 1.2-2.4 1.6-1.9.6-3 .6h-1.1c-.6 0-1.1-.2-1.5-.6s-.6-.9-.6-1.5.2-1.1.6-1.5.9-.6 1.5-.6h1.1c1 0 1.8-.3 2.5-1s1-1.5 1-2.5V19.3c0-.6.2-1.1.6-1.5.3-.4.8-.6 1.4-.6zm0-4.2c-.9 0-1.6-.3-2.2-.9s-.9-1.4-.9-2.2c0-.9.3-1.6.9-2.2s1.4-.9 2.2-.9 1.6.2 2.3.8c.6.6.9 1.4.9 2.2 0 .9-.3 1.6-.9 2.2-.7.7-1.4 1-2.3 1zm26.8 6.3c0-.6.2-1.1.6-1.5s.9-.6 1.5-.6 1.1.2 1.5.6.6.9.6 1.5v10.1c0 1.7-.3 3.2-1 4.7-.6 1.5-1.5 2.8-2.6 3.9s-2.4 2-3.9 2.6-3.1 1-4.8 1-3.2-.3-4.7-1c-1.5-.6-2.8-1.5-3.9-2.6s-2-2.4-2.6-3.9-1-3.1-1-4.7V19.3c0-.6.2-1.1.6-1.5s.9-.6 1.5-.6 1.1.2 1.5.6.6.9.6 1.5v10.1c0 1.1.2 2.2.6 3.1.4 1 1 1.8 1.7 2.6a7.82 7.82 0 0 0 2.6 1.7 8.15 8.15 0 0 0 3.1.6c1.1 0 2.2-.2 3.1-.6 1-.4 1.8-1 2.6-1.7a7.82 7.82 0 0 0 1.7-2.6 8.15 8.15 0 0 0 .6-3.1V19.3zm27.4 19.3c-1.1 1-2.4 1.7-3.7 2.3-1.4.5-2.8.8-4.3.8-1.7 0-3.2-.3-4.7-1-1.5-.6-2.8-1.5-3.9-2.6s-2-2.4-2.6-3.9-1-3.1-1-4.7c0-1.7.3-3.3 1-4.8.6-1.5 1.5-2.8 2.6-3.9s2.4-2 3.9-2.6 3.1-1 4.7-1c1.7 0 3.3.3 4.8 1s2.8 1.5 3.9 2.6 2 2.4 2.6 3.9 1 3.1 1 4.8v10.1c0 .6-.2 1.1-.6 1.5s-.9.6-1.5.6-1.1-.2-1.5-.6-.6-.9-.6-1.5v-1zm-8.1-17.2c-1.1 0-2.2.2-3.1.6-1 .4-1.8 1-2.6 1.7a7.82 7.82 0 0 0-1.7 2.6 8.15 8.15 0 0 0-.6 3.1c0 1.1.2 2.2.6 3.1.4 1 1 1.8 1.7 2.6a7.82 7.82 0 0 0 2.6 1.7 8.15 8.15 0 0 0 3.1.6c1.1 0 2.2-.2 3.1-.6 1-.4 1.8-1 2.6-1.7a7.82 7.82 0 0 0 1.7-2.6 8.15 8.15 0 0 0 .6-3.1c0-1.1-.2-2.2-.6-3.1-.4-1-1-1.8-1.7-2.6a7.82 7.82 0 0 0-2.6-1.7c-.9-.4-2-.6-3.1-.6zm20 18.1c0 .6-.2 1.1-.6 1.5s-.9.6-1.5.6-1.1-.2-1.5-.6-.6-.9-.6-1.5V29.4c0-1.7.3-3.3 1-4.8.6-1.5 1.5-2.8 2.6-3.9s2.4-2 3.9-2.6 3.1-1 4.7-1c1.7 0 3.3.3 4.8 1s2.8 1.5 3.9 2.6 2 2.4 2.6 3.9 1 3.1 1 4.8v10.1c0 .6-.2 1.1-.6 1.5s-.9.6-1.5.6-1.1-.2-1.5-.6-.6-.9-.6-1.5V29.4c0-1.1-.2-2.2-.6-3.1-.4-1-1-1.8-1.7-2.6A7.82 7.82 0 0 0 165 22a8.15 8.15 0 0 0-3.1-.6c-1.1 0-2.2.2-3.1.6-1 .4-1.8 1-2.6 1.7a7.82 7.82 0 0 0-1.7 2.6 8.15 8.15 0 0 0-.6 3.1v10.1zm28.6 0c0 .6-.2 1.1-.6 1.5s-.9.6-1.5.6-1.1-.2-1.5-.6-.6-.9-.6-1.5V8.8c0-.6.2-1.1.6-1.5s.9-.6 1.5-.6 1.1.2 1.5.6.6.9.6 1.5v30.7zm15.8 2.1c-1.7 0-3.2-.3-4.7-1-1.5-.6-2.8-1.5-3.9-2.6s-2-2.4-2.6-3.9-1-3.1-1-4.7c0-1.7.3-3.3 1-4.8.6-1.5 1.5-2.8 2.6-3.9s2.4-2 3.9-2.6 3.1-1 4.7-1c1.7 0 3.3.3 4.8 1s2.8 1.5 3.9 2.6 2 2.4 2.6 3.9c.7 1.5 1 3.1 1 4.8s-.3 3.2-1 4.7c-.6 1.5-1.5 2.8-2.6 3.9s-2.4 2-3.9 2.6c-1.5.7-3.1 1-4.8 1zm0-4.2c1.1 0 2.2-.2 3.1-.6 1-.4 1.8-1 2.6-1.7a7.82 7.82 0 0 0 1.7-2.6 8.15 8.15 0 0 0 .6-3.1c0-1.1-.2-2.2-.6-3.1-.4-1-1-1.8-1.7-2.6a7.82 7.82 0 0 0-2.6-1.7 8.15 8.15 0 0 0-3.1-.6c-1.1 0-2.2.2-3.1.6-1 .4-1.8 1-2.6 1.7a7.82 7.82 0 0 0-1.7 2.6 8.15 8.15 0 0 0-.6 3.1c0 1.1.2 2.2.6 3.1.4 1 1 1.8 1.7 2.6a7.82 7.82 0 0 0 2.6 1.7c.9.4 2 .6 3.1.6zm15.2-8c0-1.7.3-3.3 1-4.8.6-1.5 1.5-2.8 2.6-3.9s2.4-2 3.9-2.6 3.1-1 4.7-1c1.7 0 3.3.3 4.8 1s2.8 1.5 3.9 2.6 2 2.4 2.6 3.9 1 3.1 1 4.8-.3 3.2-1 4.7c-.6 1.5-1.5 2.8-2.6 3.9s-2.4 2-3.9 2.6-3.1 1-4.8 1c-1.5 0-2.9-.3-4.3-.8s-2.6-1.3-3.7-2.3v12.1c0 .6-.2 1.1-.6 1.5s-.9.6-1.5.6-1.1-.2-1.5-.6-.6-.9-.6-1.5V29.4zm12.2 8c1.1 0 2.2-.2 3.1-.6 1-.4 1.8-1 2.6-1.7a7.82 7.82 0 0 0 1.7-2.6 8.15 8.15 0 0 0 .6-3.1c0-1.1-.2-2.2-.6-3.1-.4-1-1-1.8-1.7-2.6a7.82 7.82 0 0 0-2.6-1.7 8.15 8.15 0 0 0-3.1-.6c-1.1 0-2.2.2-3.1.6-1 .4-1.8 1-2.6 1.7a7.82 7.82 0 0 0-1.7 2.6 8.15 8.15 0 0 0-.6 3.1c0 1.1.2 2.2.6 3.1s1 1.8 1.7 2.6a7.82 7.82 0 0 0 2.6 1.7 8.15 8.15 0 0 0 3.1.6zm26.9-20.2c1.7 0 3.3.3 4.8 1 1.5.6 2.8 1.5 3.9 2.6s2 2.4 2.6 3.9 1 3.1 1 4.8c0 .6-.2 1.1-.6 1.5s-.9.6-1.5.6h-17.9c.2.9.6 1.7 1.1 2.4s1.1 1.4 1.8 1.9 1.4.9 2.3 1.2c.8.3 1.7.4 2.6.4 1.2 0 2.3-.2 3.3-.7 1.1-.5 2-1.2 2.7-2.1.4-.5 1-.7 1.6-.7.5 0 1 .2 1.4.6s.7.8.7 1.4-.1 1.1-.5 1.5a11.49 11.49 0 0 1-4.2 3.1c-1.6.7-3.3 1.1-5.1 1.1-1.7 0-3.2-.3-4.7-1-1.5-.6-2.8-1.5-3.9-2.6s-2-2.4-2.6-3.9-1-3.1-1-4.7c0-1.7.3-3.3 1-4.8.6-1.5 1.5-2.8 2.6-3.9s2.4-2 3.9-2.6c1.5-.7 3-1 4.7-1zm7.8 10.1c-.2-.9-.6-1.7-1.1-2.4s-1.1-1.3-1.8-1.9c-.7-.5-1.4-.9-2.3-1.2-.8-.3-1.7-.4-2.6-.4-1.8 0-3.5.5-4.9 1.6s-2.4 2.5-2.9 4.3h15.6zm19-9.9c.6 0 1.1.2 1.5.6s.6.9.6 1.5-.2 1.1-.6 1.5-.9.6-1.5.6h-3.8c-1 0-1.8.3-2.5 1s-1 1.5-1 2.5v14.4c0 .6-.2 1.1-.6 1.5s-.9.6-1.5.6-1.1-.2-1.5-.6-.6-.9-.6-1.5V25.1c0-1.1.2-2.1.6-3s1-1.7 1.6-2.4 1.5-1.2 2.5-1.6c.9-.4 1.9-.6 3-.6h3.8zm23.1 21.2c-1.1 1-2.4 1.7-3.7 2.3-1.4.5-2.8.8-4.3.8-1.7 0-3.2-.3-4.7-1-1.5-.6-2.8-1.5-3.9-2.6s-2-2.4-2.6-3.9-1-3.1-1-4.7c0-1.7.3-3.3 1-4.8.6-1.5 1.5-2.8 2.6-3.9s2.4-2 3.9-2.6 3.1-1 4.7-1c1.7 0 3.3.3 4.8 1s2.8 1.5 3.9 2.6 2 2.4 2.6 3.9 1 3.1 1 4.8v10.1c0 .6-.2 1.1-.6 1.5s-.9.6-1.5.6-1.1-.2-1.5-.6-.6-.9-.6-1.5v-1zm-8-17.2c-1.1 0-2.2.2-3.1.6-1 .4-1.8 1-2.6 1.7a7.82 7.82 0 0 0-1.7 2.6 8.15 8.15 0 0 0-.6 3.1c0 1.1.2 2.2.6 3.1.4 1 1 1.8 1.7 2.6a7.82 7.82 0 0 0 2.6 1.7 8.15 8.15 0 0 0 3.1.6c1.1 0 2.2-.2 3.1-.6 1-.4 1.8-1 2.6-1.7a7.82 7.82 0 0 0 1.7-2.6 8.15 8.15 0 0 0 .6-3.1c0-1.1-.2-2.2-.6-3.1-.4-1-1-1.8-1.7-2.6a7.82 7.82 0 0 0-2.6-1.7 8.15 8.15 0 0 0-3.1-.6z" fill="#00081c"/></svg>