<svg xmlns="http://www.w3.org/2000/svg" viewBox="0 0 200 200" xmlns:v="https://vecta.io/nano"><path d="M92.2 173.5c0-5.4-1.8-8-5.3-8l-22-.1c-5.6 0-10.1-2-13.6-5.9s-5.2-8.9-5.2-14.9c0-1.6.1-2.9.2-3.7s.4-1.8.8-2.8 1.2-1.7 2.3-2.2c1.1-.4 2.5-.6 4.3-.6s3.3.2 4.4.6 1.9 1.1 2.4 2.2c.5 1 .8 1.9.9 2.7s.2 2 .2 3.6c0 1.7 1.4 2.5 4.2 2.5h18.4c3.1 0 6 .6 8.7 1.9s4.5 2.5 5.6 3.7l1.7 1.9c.1-.1.2-.4.5-.7.2-.4.8-1 1.7-1.8.9-.9 1.9-1.6 3.1-2.3 1.2-.6 2.9-1.2 5-1.8s4.4-.8 6.9-.8l15.7.1h2.5c.8 0 1.5-.2 2-.7s.8-.8.8-1.1c0-.2.1-.5.1-.8 0-1.6.1-2.8.2-3.6s.4-1.7.8-2.8 1.2-1.8 2.3-2.2 2.6-.6 4.3-.6c1.9 0 3.4.2 4.5.7s1.8 1.2 2.3 2.2c.4 1 .7 1.9.8 2.7s.2 2 .2 3.5c0 6-1.8 11-5.4 15s-8.2 6-14 6h-2c-1.3 0-2.9 0-4.8-.1-1.9 0-3.7-.1-5.3-.1-4.7 0-7.8.1-9.5.2-3.5 0-5.2 2.6-5.2 7.7v.7c0 .8-.1 1.5-.2 2s-.4 1.1-.8 1.8c-.5.7-1.3 1.3-2.4 1.7s-2.6.6-4.4.6-3.3-.2-4.4-.6c-1.2-.4-2-1-2.4-1.7s-.7-1.4-.8-1.8c-.1-.5-.2-1.1-.2-1.9v-.4z" fill="#020b36"/></svg>